<?xml version="1.0" encoding="UTF-8" standalone="no"?>
<!DOCTYPE svg PUBLIC "-//W3C//DTD SVG 1.1//EN" "http://www.w3.org/Graphics/SVG/1.1/DTD/svg11.dtd">
<svg width="100%" height="100%" viewBox="0 0 2500 500" version="1.1" xmlns="http://www.w3.org/2000/svg" xmlns:xlink="http://www.w3.org/1999/xlink" xml:space="preserve" xmlns:serif="http://www.serif.com/" style="fill-rule:evenodd;clip-rule:evenodd;stroke-linejoin:round;stroke-miterlimit:2;">
    <g transform="matrix(1.15011,0,0,1.15011,-108.567,-614.878)">
        <g transform="matrix(0.500708,0,0,0.500708,22.0595,423.905)">
            <g transform="matrix(1.39594,0,0,1.39594,-334.233,-354.21)">
                <path d="M540.368,870.217C540.368,870.217 528.918,883.622 500.153,883.622C487.316,883.622 516.482,802.564 516.482,802.564L540.368,870.217Z" style="fill:none;"/>
                <g transform="matrix(1,0,0,1.04986,0,-25.3646)">
                    <path d="M596.716,712.145C581.285,692.147 572.442,668.895 572.442,644.093C572.442,569.4 652.65,508.758 751.444,508.758C850.237,508.758 930.445,569.4 930.445,644.093C930.445,668.895 921.602,692.147 906.171,712.145L596.716,712.145Z"/>
                </g>
                <g transform="matrix(1.46734,0,0,1.41504,-439.26,-285.569)">
                    <path d="M873.045,712.145C872.757,710.364 872.609,708.548 872.609,706.705C872.609,683.584 895.939,664.814 924.675,664.814C953.411,664.814 976.741,683.584 976.741,706.705C976.74,709.71 974.392,712.145 971.495,712.145L873.045,712.145Z"/>
                </g>
                <path d="M542.171,694.182L619.842,693.536L705.688,700.206L692.043,708.833L581.503,826.491C581.503,826.491 527.188,888.319 501.829,883.978C489.93,881.94 542.171,694.182 542.171,694.182Z"/>
                <path d="M656.522,530.957C656.522,530.957 576.827,561.97 542.172,694.182C523.575,765.131 610.23,740.804 610.23,740.804L693.443,564.062L656.522,530.957Z"/>
            </g>
            <g transform="matrix(1.31405,-0.126954,0.126954,1.31405,-470.375,96.2929)">
                <path d="M465.539,185.55C465.539,185.55 394.455,288.665 625.892,333.823C625.892,333.823 513.467,330.06 480.539,314.066C480.539,314.066 467.838,351.829 535.105,390.572C535.105,390.572 591.083,387.919 631.067,395.446C631.067,395.446 568.974,408.146 529.931,408.146C529.931,408.146 540.75,443.426 597.198,469.769C597.198,469.769 623.07,466.946 657.88,447.66L651.764,473.062L712.225,473.062L786.878,323.863L465.539,185.55Z"/>
            </g>
            <g transform="matrix(-0.404749,-0.701046,0.701046,-0.404749,547.072,1553.22)">
                <path d="M439.079,886.764L439.001,886.624C415.094,843.562 400.16,794.844 396.731,743.002C396.223,735.403 395.972,727.817 395.972,720.253L395.972,720L395.973,719.691L395.973,719.672C396.054,632.504 428.624,552.883 482.216,492.274C501.566,470.318 523.876,450.665 548.84,433.998C600.563,399.339 662.19,378.335 728.545,376.16L728.843,376.15L728.914,376.148L728.916,376.148L728.926,376.147C732.528,376.032 736.125,375.974 739.717,375.972L740.241,375.972C841.772,376.042 933.072,420.189 996.023,490.297L843.944,598.015C829.24,585.471 812.245,575.536 793.677,568.931L793.623,569.012C758.948,556.692 719.887,556.175 682.852,570.324C600.211,601.898 558.75,694.626 590.324,777.268C590.51,777.756 590.699,778.242 590.89,778.727L439.079,886.764Z"/>
            </g>
            <g transform="matrix(0.126826,-0.799501,0.799501,0.126826,82.8492,1243.31)">
                <path d="M439.079,886.764L439.001,886.624C415.094,843.562 400.16,794.844 396.731,743.002C396.223,735.403 395.972,727.817 395.972,720.253L395.972,720L395.973,719.691L395.973,719.672C396.054,632.504 428.624,552.883 482.216,492.274C501.566,470.318 523.876,450.665 548.84,433.998C600.563,399.339 662.19,378.335 728.545,376.16L728.843,376.15L728.914,376.148L728.916,376.148L728.926,376.147C732.528,376.032 736.125,375.974 739.717,375.972L740.241,375.972C841.772,376.042 933.072,420.189 996.023,490.297L843.944,598.015C829.24,585.471 812.245,575.536 793.677,568.931L793.623,569.012C758.948,556.692 719.887,556.175 682.852,570.324C600.211,601.898 558.75,694.626 590.324,777.268C590.51,777.756 590.699,778.242 590.89,778.727L439.079,886.764Z"/>
            </g>
            <g transform="matrix(1,0,0,1,-26.428,6.83413)">
                <circle cx="776.428" cy="743.166" r="49.117"/>
            </g>
            <g transform="matrix(1,0,0,1,165.473,11.4032)">
                <circle cx="776.428" cy="743.166" r="49.117"/>
            </g>
        </g>
        <g transform="matrix(1,0,0,1,-515.142,-10.9965)">
            <g transform="matrix(278.235,0,0,278.235,1125.98,865.106)">
                <path d="M0.317,0.012C0.403,0.012 0.473,-0.023 0.524,-0.079L0.427,-0.161C0.4,-0.131 0.358,-0.111 0.318,-0.111C0.241,-0.111 0.177,-0.179 0.177,-0.26C0.177,-0.339 0.241,-0.406 0.317,-0.406C0.357,-0.406 0.398,-0.387 0.424,-0.358L0.521,-0.441C0.471,-0.495 0.402,-0.529 0.318,-0.529C0.165,-0.529 0.035,-0.406 0.035,-0.259C0.035,-0.112 0.164,0.012 0.317,0.012Z" style="fill-rule:nonzero;"/>
            </g>
            <g transform="matrix(278.235,0,0,278.235,1264.26,865.106)">
                <path d="M0.318,0.012C0.471,0.012 0.599,-0.112 0.599,-0.259C0.599,-0.406 0.471,-0.529 0.318,-0.529C0.164,-0.529 0.035,-0.406 0.035,-0.259C0.035,-0.112 0.164,0.012 0.318,0.012ZM0.318,-0.111C0.24,-0.111 0.175,-0.179 0.175,-0.259C0.175,-0.339 0.24,-0.406 0.318,-0.406C0.395,-0.406 0.46,-0.339 0.46,-0.259C0.46,-0.179 0.395,-0.111 0.318,-0.111Z" style="fill-rule:nonzero;"/>
            </g>
            <g transform="matrix(278.235,0,0,278.235,1422.86,865.106)">
                <path d="M0.237,0L0.372,0L0.593,-0.517L0.441,-0.517L0.305,-0.168L0.166,-0.517L0.013,-0.517L0.237,0Z" style="fill-rule:nonzero;"/>
            </g>
            <g transform="matrix(278.235,0,0,278.235,1580.34,878.183)">
                <path d="M0.137,-0.588C0.18,-0.588 0.215,-0.624 0.215,-0.668C0.215,-0.709 0.18,-0.746 0.137,-0.746C0.092,-0.746 0.057,-0.709 0.057,-0.668C0.057,-0.624 0.092,-0.588 0.137,-0.588Z" style="fill:rgb(84,54,255);"/>
            </g>
            <g transform="matrix(278.235,0,0,278.235,1580.34,865.106)">
                <rect x="0.063" y="-0.517" width="0.146" height="0.517"/>
            </g>
            <g transform="matrix(278.235,0,0,278.235,1644.89,865.106)">
                <path d="M0.45,-0.699L0.45,-0.443C0.409,-0.497 0.349,-0.529 0.276,-0.529C0.138,-0.529 0.038,-0.417 0.038,-0.259C0.038,-0.1 0.138,0.012 0.276,0.012C0.349,0.012 0.409,-0.02 0.45,-0.074L0.45,0L0.596,0L0.596,-0.699L0.45,-0.699ZM0.318,-0.111C0.237,-0.111 0.18,-0.172 0.18,-0.259C0.18,-0.345 0.237,-0.406 0.318,-0.406C0.395,-0.406 0.45,-0.345 0.45,-0.259C0.45,-0.172 0.395,-0.111 0.318,-0.111Z" style="fill-rule:nonzero;"/>
            </g>
            <g transform="matrix(278.235,0,0,278.235,1883.89,865.106)">
                <path d="M0.363,-0.529C0.297,-0.529 0.24,-0.499 0.208,-0.454L0.208,-0.699L0.062,-0.699L0.062,0L0.208,0L0.208,-0.306C0.208,-0.362 0.255,-0.406 0.316,-0.406C0.374,-0.406 0.414,-0.362 0.414,-0.298L0.414,0L0.555,0L0.555,-0.329C0.555,-0.446 0.475,-0.529 0.363,-0.529Z" style="fill-rule:nonzero;"/>
            </g>
            <g transform="matrix(278.235,0,0,278.235,1883.89,865.106)">
                <path d="M0.363,-0.529C0.297,-0.529 0.24,-0.499 0.208,-0.454L0.208,-0.699L0.062,-0.699L0.062,0L0.208,0L0.208,-0.306C0.208,-0.362 0.255,-0.406 0.316,-0.406C0.374,-0.406 0.414,-0.362 0.414,-0.298L0.414,0L0.555,0L0.555,-0.329C0.555,-0.446 0.475,-0.529 0.363,-0.529Z" style="fill-rule:nonzero;"/>
            </g>
            <g transform="matrix(278.235,0,0,278.235,2043.6,865.106)">
                <path d="M0.308,-0.117C0.247,-0.117 0.202,-0.155 0.185,-0.211L0.558,-0.211C0.558,-0.406 0.463,-0.529 0.301,-0.529C0.15,-0.529 0.035,-0.416 0.035,-0.26C0.035,-0.101 0.155,0.012 0.309,0.012C0.385,0.012 0.474,-0.02 0.52,-0.068L0.427,-0.163C0.399,-0.136 0.349,-0.117 0.308,-0.117ZM0.307,-0.4C0.366,-0.4 0.404,-0.367 0.418,-0.316L0.187,-0.316C0.206,-0.368 0.252,-0.4 0.307,-0.4Z" style="fill-rule:nonzero;"/>
            </g>
            <g transform="matrix(278.235,0,0,278.235,2197.46,865.106)">
                <path d="M0.21,-0.421L0.21,-0.517L0.064,-0.517L0.064,0L0.21,0L0.21,-0.247C0.21,-0.344 0.279,-0.406 0.387,-0.406L0.387,-0.529C0.308,-0.529 0.244,-0.488 0.21,-0.421Z" style="fill-rule:nonzero;"/>
            </g>
            <g transform="matrix(278.235,0,0,278.235,2296.24,865.106)">
                <path d="M0.318,0.012C0.471,0.012 0.599,-0.112 0.599,-0.259C0.599,-0.406 0.471,-0.529 0.318,-0.529C0.164,-0.529 0.035,-0.406 0.035,-0.259C0.035,-0.112 0.164,0.012 0.318,0.012ZM0.318,-0.111C0.24,-0.111 0.175,-0.179 0.175,-0.259C0.175,-0.339 0.24,-0.406 0.318,-0.406C0.395,-0.406 0.46,-0.339 0.46,-0.259C0.46,-0.179 0.395,-0.111 0.318,-0.111Z" style="fill-rule:nonzero;"/>
            </g>
            <g transform="matrix(278.235,0,0,278.235,2461.51,865.106)">
                <path d="M0.308,-0.117C0.247,-0.117 0.202,-0.155 0.185,-0.211L0.558,-0.211C0.558,-0.406 0.463,-0.529 0.301,-0.529C0.15,-0.529 0.035,-0.416 0.035,-0.26C0.035,-0.101 0.155,0.012 0.309,0.012C0.385,0.012 0.474,-0.02 0.52,-0.068L0.427,-0.163C0.399,-0.136 0.349,-0.117 0.308,-0.117ZM0.307,-0.4C0.366,-0.4 0.404,-0.367 0.418,-0.316L0.187,-0.316C0.206,-0.368 0.252,-0.4 0.307,-0.4Z" style="fill-rule:nonzero;"/>
            </g>
            <g transform="matrix(278.235,0,0,278.235,2615.37,865.106)">
                <path d="M0.258,0.012C0.385,0.012 0.468,-0.053 0.468,-0.155C0.468,-0.268 0.369,-0.298 0.28,-0.321C0.21,-0.34 0.189,-0.348 0.189,-0.376C0.189,-0.394 0.214,-0.407 0.25,-0.407C0.294,-0.407 0.348,-0.39 0.395,-0.361L0.454,-0.465C0.397,-0.503 0.324,-0.529 0.25,-0.529C0.128,-0.529 0.047,-0.459 0.048,-0.361C0.049,-0.259 0.131,-0.23 0.237,-0.204C0.29,-0.19 0.328,-0.18 0.328,-0.148C0.328,-0.125 0.3,-0.109 0.261,-0.109C0.192,-0.109 0.134,-0.134 0.088,-0.167L0.025,-0.066C0.087,-0.016 0.175,0.012 0.258,0.012Z" style="fill-rule:nonzero;"/>
            </g>
        </g>
    </g>
</svg>
