<?xml version="1.0" encoding="UTF-8" standalone="no"?>
<!DOCTYPE svg PUBLIC "-//W3C//DTD SVG 1.1//EN" "http://www.w3.org/Graphics/SVG/1.1/DTD/svg11.dtd">
<svg width="100%" height="100%" viewBox="0 0 706 706" version="1.1" xmlns="http://www.w3.org/2000/svg" xmlns:xlink="http://www.w3.org/1999/xlink" xml:space="preserve" xmlns:serif="http://www.serif.com/" style="fill-rule:evenodd;clip-rule:evenodd;stroke-linejoin:round;stroke-miterlimit:2;">
    <g transform="matrix(3.84833,0,0,3.84833,-1452.29,-814.492)">
        <path d="M438.155,370.625C408.836,358.462 388.199,329.551 388.199,295.859C388.199,251.203 424.453,214.948 469.109,214.948C513.765,214.948 550.02,251.203 550.02,295.859C550.02,329.459 529.494,358.304 500.315,370.52L469.094,394.625L438.155,370.625ZM443.524,361.29C417.391,351.052 398.865,325.602 398.865,295.859C398.865,257.09 430.341,225.615 469.109,225.615C507.878,225.615 539.353,257.09 539.353,295.859C539.353,325.509 520.943,350.893 494.943,361.192L469.109,381.137L443.524,361.29Z" style="fill:white;"/>
        <path d="M443.524,361.29C417.391,351.052 398.865,325.602 398.865,295.859C398.865,257.09 430.341,225.615 469.109,225.615C507.878,225.615 539.353,257.09 539.353,295.859C539.353,325.509 520.943,350.893 494.943,361.192L469.109,381.137L443.524,361.29Z" style="fill:rgb(247,84,47);"/>
    </g>
    <g transform="matrix(0.656266,0,0,0.656266,184.995,154.056)">
        <path d="M503.402,228.885L273.684,19.567C263.601,10.378 248.396,10.379 238.317,19.566L8.598,228.886C0.521,236.246 -2.147,247.586 1.799,257.775C5.746,267.964 15.356,274.547 26.283,274.547L62.973,274.547L62.973,484.268C62.973,492.583 69.715,499.325 78.03,499.325L203.944,499.325C212.259,499.325 219.001,492.584 219.001,484.268L219.001,356.932L293.003,356.932L293.003,484.269C293.003,492.584 299.745,499.326 308.06,499.326L433.968,499.326C442.283,499.326 449.025,492.585 449.025,484.269L449.025,274.547L485.722,274.547C496.648,274.547 506.259,267.963 510.206,257.775C514.147,247.585 511.479,236.246 503.402,228.885Z" style="fill:white;fill-rule:nonzero;"/>
    </g>
</svg>
