<?xml version="1.0" encoding="UTF-8" standalone="no"?>
<!DOCTYPE svg PUBLIC "-//W3C//DTD SVG 1.1//EN" "http://www.w3.org/Graphics/SVG/1.1/DTD/svg11.dtd">
<svg width="100%" height="100%" viewBox="0 0 1500 1500" version="1.1" xmlns="http://www.w3.org/2000/svg" xmlns:xlink="http://www.w3.org/1999/xlink" xml:space="preserve" xmlns:serif="http://www.serif.com/" style="fill-rule:evenodd;clip-rule:evenodd;stroke-linejoin:round;stroke-miterlimit:1.41421;">
    <g id="Layer1">
    </g>
    <g transform="matrix(1.67093,0,0,1.67093,-259.928,-338.224)">
        <g transform="matrix(1.39594,0,0,1.39594,-334.233,-354.21)">
            <path d="M540.368,870.217C540.368,870.217 528.918,883.622 500.153,883.622C487.316,883.622 516.482,802.564 516.482,802.564L540.368,870.217Z" style="fill:none;"/>
            <g transform="matrix(1,0,0,1.04986,0,-25.3646)">
                <path d="M596.716,712.145C581.285,692.147 572.442,668.895 572.442,644.093C572.442,569.4 652.65,508.758 751.444,508.758C850.237,508.758 930.445,569.4 930.445,644.093C930.445,668.895 921.602,692.147 906.171,712.145L596.716,712.145Z"/>
            </g>
            <g transform="matrix(1.46734,0,0,1.41504,-439.26,-285.569)">
                <path d="M873.045,712.145C872.757,710.364 872.609,708.548 872.609,706.705C872.609,683.584 895.939,664.814 924.675,664.814C953.411,664.814 976.741,683.584 976.741,706.705C976.741,707.769 976.691,708.825 976.594,709.87C976.472,711.159 975.426,712.141 974.177,712.141C959.433,712.145 873.045,712.145 873.045,712.145Z"/>
            </g>
            <path d="M542.171,694.182L619.842,693.536L705.688,700.206L692.043,708.833L581.503,826.491C581.503,826.491 527.188,888.319 501.829,883.978C489.93,881.94 542.171,694.182 542.171,694.182Z"/>
            <path d="M656.522,530.957C656.522,530.957 576.827,561.97 542.172,694.182C523.575,765.131 610.23,740.804 610.23,740.804L693.443,564.062L656.522,530.957Z"/>
        </g>
        <g transform="matrix(1.31405,-0.126954,0.126954,1.31405,-470.375,96.2929)">
            <path d="M465.539,185.55C465.539,185.55 394.455,288.665 625.892,333.823C625.892,333.823 513.467,330.06 480.539,314.066C480.539,314.066 467.838,351.829 535.105,390.572C535.105,390.572 591.083,387.919 631.067,395.446C631.067,395.446 568.974,408.146 529.931,408.146C529.931,408.146 540.75,443.426 597.198,469.769C597.198,469.769 623.07,466.946 657.88,447.66L651.764,473.062L712.225,473.062L786.878,323.863L465.539,185.55Z"/>
        </g>
        <g transform="matrix(-0.404749,-0.701046,0.701046,-0.404749,547.072,1553.22)">
            <path d="M439.079,886.764L439.001,886.624C415.094,843.562 400.16,794.844 396.731,743.002C396.223,735.403 395.972,727.817 395.972,720.253L395.972,720L395.973,719.691L395.973,719.681L395.973,719.672C396.054,632.504 428.624,552.883 482.216,492.274C501.566,470.318 523.876,450.665 548.84,433.998C600.563,399.339 662.19,378.335 728.545,376.16L728.843,376.15L728.914,376.148L728.916,376.148L728.926,376.147C732.528,376.032 736.125,375.974 739.717,375.972L740,375.972L740.071,375.972L740.105,375.972L740.241,375.972C841.772,376.042 933.072,420.189 996.023,490.297L843.944,598.015C829.24,585.471 812.245,575.536 793.677,568.931L793.623,569.012C758.948,556.692 719.887,556.175 682.852,570.324C600.211,601.898 558.75,694.626 590.324,777.268C590.51,777.756 590.699,778.242 590.89,778.727L439.079,886.764Z"/>
        </g>
        <g transform="matrix(0.126826,-0.799501,0.799501,0.126826,82.8492,1243.31)">
            <path d="M439.079,886.764L439.001,886.624C415.094,843.562 400.16,794.844 396.731,743.002C396.223,735.403 395.972,727.817 395.972,720.253L395.972,720L395.973,719.691L395.973,719.681L395.973,719.672C396.054,632.504 428.624,552.883 482.216,492.274C501.566,470.318 523.876,450.665 548.84,433.998C600.563,399.339 662.19,378.335 728.545,376.16L728.843,376.15L728.914,376.148L728.916,376.148L728.926,376.147C732.528,376.032 736.125,375.974 739.717,375.972L740,375.972L740.071,375.972L740.105,375.972L740.241,375.972C841.772,376.042 933.072,420.189 996.023,490.297L843.944,598.015C829.24,585.471 812.245,575.536 793.677,568.931L793.623,569.012C758.948,556.692 719.887,556.175 682.852,570.324C600.211,601.898 558.75,694.626 590.324,777.268C590.51,777.756 590.699,778.242 590.89,778.727L439.079,886.764Z"/>
        </g>
    </g>
    <g transform="matrix(1.67093,0,0,1.67093,-304.088,-326.805)">
        <circle cx="776.428" cy="743.166" r="49.117"/>
    </g>
    <g transform="matrix(1.67093,0,0,1.67093,16.5654,-319.17)">
        <circle cx="776.428" cy="743.166" r="49.117"/>
    </g>
</svg>
