<?xml version="1.0" encoding="UTF-8" standalone="no"?>
<!DOCTYPE svg PUBLIC "-//W3C//DTD SVG 1.1//EN" "http://www.w3.org/Graphics/SVG/1.1/DTD/svg11.dtd">
<svg width="100%" height="100%" viewBox="0 0 706 706" version="1.1" xmlns="http://www.w3.org/2000/svg" xmlns:xlink="http://www.w3.org/1999/xlink" xml:space="preserve" xmlns:serif="http://www.serif.com/" style="fill-rule:evenodd;clip-rule:evenodd;stroke-linejoin:round;stroke-miterlimit:2;">
    <g transform="matrix(3.84833,0,0,3.84833,-1452.29,-814.492)">
        <path d="M438.155,370.625C408.836,358.462 388.199,329.551 388.199,295.859C388.199,251.203 424.453,214.948 469.109,214.948C513.765,214.948 550.02,251.203 550.02,295.859C550.02,329.459 529.494,358.304 500.315,370.52L469.094,394.625L438.155,370.625ZM443.524,361.29C417.391,351.052 398.865,325.602 398.865,295.859C398.865,257.09 430.341,225.615 469.109,225.615C507.878,225.615 539.353,257.09 539.353,295.859C539.353,325.509 520.943,350.893 494.943,361.192L469.109,381.137L443.524,361.29Z" style="fill:white;"/>
        <path d="M443.524,361.29C417.391,351.052 398.865,325.602 398.865,295.859C398.865,257.09 430.341,225.615 469.109,225.615C507.878,225.615 539.353,257.09 539.353,295.859C539.353,325.509 520.943,350.893 494.943,361.192L469.109,381.137L443.524,361.29Z" style="fill:rgb(108,99,255);"/>
        <g transform="matrix(0.0710035,0,0,0.0710035,415.856,250.124)">
            <g transform="matrix(2.33252,0,0,2.33252,-818.408,-930.084)">
                <path d="M540.368,870.217C540.368,870.217 528.918,883.622 500.153,883.622C487.316,883.622 516.482,802.564 516.482,802.564L540.368,870.217Z" style="fill:white;"/>
            </g>
            <g transform="matrix(2.33252,0,0,2.33252,-818.408,-930.084)">
                <path d="M542.171,694.182L619.842,693.536L705.688,700.206L692.043,708.833L581.503,826.491C581.503,826.491 527.188,888.319 501.829,883.978C489.93,881.94 542.171,694.182 542.171,694.182Z" style="fill:white;"/>
            </g>
            <g transform="matrix(3.4226,0,0,3.30061,-1842.99,-1596.18)">
                <path d="M873.045,712.145C872.757,710.364 872.609,708.548 872.609,706.705C872.609,683.584 895.939,664.814 924.675,664.814C953.411,664.814 976.741,683.584 976.741,706.705C976.741,707.769 976.691,708.825 976.594,709.87C976.472,711.159 975.426,712.141 974.177,712.141C959.433,712.145 873.045,712.145 873.045,712.145Z" style="fill:white;"/>
                <g transform="matrix(0.681505,0,0,0.706694,299.358,201.81)">
                    <path d="M656.522,530.957C656.522,530.957 576.827,561.97 542.172,694.182C523.575,765.131 610.23,740.804 610.23,740.804L693.443,564.062L656.522,530.957Z" style="fill:white;"/>
                </g>
            </g>
            <g transform="matrix(-0.676307,-1.1714,1.1714,-0.676307,654.191,2257.1)">
                <path d="M439.079,886.764L439.001,886.624C415.094,843.562 400.16,794.844 396.731,743.002C396.223,735.403 395.972,727.817 395.972,720.253L395.972,720L395.973,719.691L395.973,719.672C396.054,632.504 428.624,552.883 482.216,492.274C501.566,470.318 523.876,450.665 548.84,433.998C600.563,399.339 662.19,378.335 728.545,376.16L728.843,376.15L728.914,376.148L728.916,376.148L728.926,376.147C732.528,376.032 736.125,375.974 739.717,375.972L740.241,375.972C841.772,376.042 933.072,420.189 996.023,490.297L843.944,598.015C829.24,585.471 812.245,575.536 793.677,568.931L793.623,569.012C758.948,556.692 719.887,556.175 682.852,570.324C600.211,601.898 558.75,694.626 590.324,777.268C590.51,777.756 590.699,778.242 590.89,778.727L439.079,886.764Z" style="fill:white;"/>
            </g>
            <g transform="matrix(2.19569,-0.212131,0.212131,2.19569,-1045.89,-177.325)">
                <path d="M465.539,185.55C465.539,185.55 394.455,288.665 625.892,333.823C625.892,333.823 513.467,330.06 480.539,314.066C480.539,314.066 467.838,351.829 535.105,390.572C535.105,390.572 591.083,387.919 631.067,395.446C631.067,395.446 568.974,408.146 529.931,408.146C529.931,408.146 540.75,443.426 597.198,469.769C597.198,469.769 623.07,466.946 657.88,447.66L651.764,473.062L712.225,473.062L786.878,323.863L465.539,185.55Z" style="fill:white;"/>
                <g transform="matrix(1.05249,0.101684,-0.106754,1.10497,138.042,-356.444)">
                    <path d="M596.716,712.145C581.285,692.147 572.442,668.895 572.442,644.093C572.442,569.4 652.65,508.758 751.444,508.758C850.237,508.758 930.445,569.4 930.445,644.093C930.445,668.895 921.602,692.147 906.171,712.145L596.716,712.145Z" style="fill:white;"/>
                </g>
            </g>
            <g transform="matrix(0.211917,-1.33591,1.33591,0.211917,-121.493,1739.26)">
                <path d="M439.079,886.764L439.001,886.624C415.094,843.562 400.16,794.844 396.731,743.002C396.223,735.403 395.972,727.817 395.972,720.253L395.972,720L395.973,719.691L395.973,719.672C396.054,632.504 428.624,552.883 482.216,492.274C501.566,470.318 523.876,450.665 548.84,433.998C600.563,399.339 662.19,378.335 728.545,376.16L728.843,376.15L728.914,376.148L728.916,376.148L728.926,376.147C732.528,376.032 736.125,375.974 739.717,375.972L740.241,375.972C841.772,376.042 933.072,420.189 996.023,490.297L843.944,598.015C829.24,585.471 812.245,575.536 793.677,568.931L793.623,569.012C758.948,556.692 719.887,556.175 682.852,570.324C600.211,601.898 558.75,694.626 590.324,777.268C590.51,777.756 590.699,778.242 590.89,778.727L439.079,886.764Z" style="fill:white;"/>
            </g>
            <g transform="matrix(1.67093,0,0,1.67093,16.5654,-319.17)">
                <circle cx="776.428" cy="743.166" r="49.117" style="fill:white;"/>
            </g>
            <g transform="matrix(1.67093,0,0,1.67093,-304.088,-326.805)">
                <circle cx="776.428" cy="743.166" r="49.117" style="fill:white;"/>
            </g>
        </g>
    </g>
</svg>
